simulation
nRows=55
nColumns=15
endheader
time  TH_x TH_y TH_z SC_y  SC_z  SC_x  AC_y  AC_z  AC_x  GH_y  GH_z  GH_yy  EL_x  PS_y
0.000000  0.000000  0.000000  0.000000  -36.370049  15.826951  -10.000000  40.958840  18.585726  10.021408  -56.794552  -21.605931  56.552633  30.501013  120.848230
0.000044  0.000000  0.000000  0.000000  -36.370049  15.826951  -6.842105  41.708615  16.499773  7.534682  -56.794552  -21.605931  56.552633  30.501013  120.848230
0.000088  0.000000  0.000000  0.000000  -36.370049  15.826951  -3.684211  42.356733  14.385068  5.101383  -56.794552  -21.605931  56.552633  30.501013  120.848230
0.000133  0.000000  0.000000  0.000000  -36.370049  15.826951  -0.526316  42.906747  12.245956  2.713999  -56.794552  -21.605931  56.552633  30.501013  120.848230
0.000177  0.000000  0.000000  0.000000  -36.370049  15.826951  2.631579  43.361751  10.086560  0.365182  -56.794552  -21.605931  56.552633  30.501013  120.848230
0.000221  0.000000  0.000000  0.000000  -36.370049  15.826951  5.789474  43.724341  7.910784  -1.952225  -56.794552  -21.605931  56.552633  30.501013  120.848230
0.000265  0.000000  0.000000  0.000000  -36.370049  15.826951  8.947368  43.996584  5.722371  -4.245236  -56.794552  -21.605931  56.552633  30.501013  120.848230
0.000310  0.000000  0.000000  0.000000  -36.370049  15.826951  12.105263  44.180066  3.524928  -6.520718  -56.794552  -21.605931  56.552633  30.501013  120.848230
0.000354  0.000000  0.000000  0.000000  -36.370049  15.826951  15.263158  44.275859  1.321961  -8.785457  -56.794552  -21.605931  56.552633  30.501013  120.848230
0.000398  0.000000  0.000000  0.000000  -36.370049  15.826951  18.421053  44.284522  -0.883060  -11.046175  -56.794552  -21.605931  56.552633  30.501013  120.848230
0.000442  0.000000  0.000000  0.000000  -36.370049  15.826951  21.578947  44.206099  -3.086713  -13.309583  -56.794552  -21.605931  56.552633  30.501013  120.848230
0.000487  0.000000  0.000000  0.000000  -36.370049  15.826951  24.736842  44.040142  -5.285537  -15.582391  -56.794552  -21.605931  56.552633  30.501013  120.848230
0.000531  0.000000  0.000000  0.000000  -36.370049  15.826951  27.894737  43.785676  -7.476033  -17.871366  -56.794552  -21.605931  56.552633  30.501013  120.848230
0.000575  0.000000  0.000000  0.000000  -36.370049  15.826951  31.052632  43.441226  -9.654615  -20.183364  -56.794552  -21.605931  56.552633  30.501013  120.848230
0.000619  0.000000  0.000000  0.000000  -36.370049  15.826951  34.210526  43.004809  -11.817572  -22.525365  -56.794552  -21.605931  56.552633  30.501013  120.848230
0.000664  0.000000  0.000000  0.000000  -36.370049  15.826951  37.368421  42.473933  -13.961042  -24.904498  -56.794552  -21.605931  56.552633  30.501013  120.848230
0.000708  0.000000  0.000000  0.000000  -36.370049  15.826951  40.526316  41.845617  -16.080947  -27.328058  -56.794552  -21.605931  56.552633  30.501013  120.848230
0.000752  0.000000  0.000000  0.000000  -36.370049  15.826951  43.684211  41.116384  -18.172982  -29.803541  -56.794552  -21.605931  56.552633  30.501013  120.848230
0.000796  0.000000  0.000000  0.000000  -36.370049  15.826951  46.842105  40.282315  -20.232571  -32.338610  -56.794552  -21.605931  56.552633  30.501013  120.848230
0.000841  0.000000  0.000000  0.000000  -36.370049  15.826951  50.000000  39.339032  -22.254800  -34.941140  -56.794552  -21.605931  56.552633  30.501013  120.848230
0.000885  0.000000  0.000000  0.000000  -21.616584  2.093104  -10.000000  41.009526  13.682601  5.055856  -29.315431  7.033704  58.438672  14.710912  118.582776
0.000929  0.000000  0.000000  0.000000  -21.616584  2.093104  -6.842105  41.541934  11.599069  2.623730  -29.315431  7.033704  58.438672  14.710912  118.582776
0.000973  0.000000  0.000000  0.000000  -21.616584  2.093104  -3.684211  41.980624  9.495502  0.227828  -29.315431  7.033704  58.438672  14.710912  118.582776
0.001018  0.000000  0.000000  0.000000  -21.616584  2.093104  -0.526316  42.327924  7.375844  -2.138723  -29.315431  7.033704  58.438672  14.710912  118.582776
0.001062  0.000000  0.000000  0.000000  -21.616584  2.093104  2.631579  42.585602  5.243866  -4.482649  -29.315431  7.033704  58.438672  14.710912  118.582776
0.001106  0.000000  0.000000  0.000000  -21.616584  2.093104  5.789474  42.755073  3.103216  -6.810580  -29.315431  7.033704  58.438672  14.710912  118.582776
0.001150  0.000000  0.000000  0.000000  -21.616584  2.093104  8.947368  42.837243  0.957474  -9.129086  -29.315431  7.033704  58.438672  14.710912  118.582776
0.001195  0.000000  0.000000  0.000000  -21.616584  2.093104  12.105263  42.832547  -1.189833  -11.444689  -29.315431  7.033704  58.438672  14.710912  118.582776
0.001239  0.000000  0.000000  0.000000  -21.616584  2.093104  15.263158  42.740959  -3.335194  -13.763900  -29.315431  7.033704  58.438672  14.710912  118.582776
0.001283  0.000000  0.000000  0.000000  -21.616584  2.093104  18.421053  42.561991  -5.475080  -16.093243  -29.315431  7.033704  58.438672  14.710912  118.582776
0.001327  0.000000  0.000000  0.000000  -21.616584  2.093104  21.578947  42.294680  -7.605908  -18.439292  -29.315431  7.033704  58.438672  14.710912  118.582776
0.001372  0.000000  0.000000  0.000000  -21.616584  2.093104  24.736842  41.937605  -9.724011  -20.808690  -29.315431  7.033704  58.438672  14.710912  118.582776
0.001416  0.000000  0.000000  0.000000  -21.616584  2.093104  27.894737  41.488882  -11.825596  -23.208187  -29.315431  7.033704  58.438672  14.710912  118.582776
0.001460  0.000000  0.000000  0.000000  -21.616584  2.093104  31.052632  40.946176  -13.906717  -25.644649  -29.315431  7.033704  58.438672  14.710912  118.582776
0.001504  0.000000  0.000000  0.000000  -21.616584  2.093104  34.210526  40.306718  -15.963239  -28.125077  -29.315431  7.033704  58.438672  14.710912  118.582776
0.001549  0.000000  0.000000  0.000000  -21.616584  2.093104  37.368421  39.567314  -17.990765  -30.656604  -29.315431  7.033704  58.438672  14.710912  118.582776
0.001593  0.000000  0.000000  0.000000  -21.616584  2.093104  40.526316  38.724398  -19.984702  -33.246496  -29.315431  7.033704  58.438672  14.710912  118.582776
0.001637  0.000000  0.000000  0.000000  -21.616584  2.093104  43.684211  37.774037  -21.940072  -35.902144  -29.315431  7.033704  58.438672  14.710912  118.582776
0.001681  0.000000  0.000000  0.000000  -21.616584  2.093104  46.842105  36.712040  -23.851612  -38.630981  -29.315431  7.033704  58.438672  14.710912  118.582776
0.001726  0.000000  0.000000  0.000000  -21.616584  2.093104  50.000000  35.534026  -25.713662  -41.440448  -29.315431  7.033704  58.438672  14.710912  118.582776
0.001770  0.000000  0.000000  0.000000  -27.367558  19.442855  -10.000000  37.852407  13.604829  8.213259  -78.417781  -0.636629  110.055149  23.720636  123.063887
0.001814  0.000000  0.000000  0.000000  -27.367558  19.442855  -6.842105  38.409132  11.654627  5.667771  -78.417781  -0.636629  110.055149  23.720636  123.063887
0.001858  0.000000  0.000000  0.000000  -27.367558  19.442855  -3.684211  38.873917  9.682376  3.157967  -78.417781  -0.636629  110.055149  23.720636  123.063887
0.001903  0.000000  0.000000  0.000000  -27.367558  19.442855  -0.526316  39.248665  7.692110  0.677612  -78.417781  -0.636629  110.055149  23.720636  123.063887
0.001947  0.000000  0.000000  0.000000  -27.367558  19.442855  2.631579  39.534996  5.687736  -1.779492  -78.417781  -0.636629  110.055149  23.720636  123.063887
0.001991  0.000000  0.000000  0.000000  -27.367558  19.442855  5.789474  39.734148  3.673046  -4.219489  -78.417781  -0.636629  110.055149  23.720636  123.063887
0.002035  0.000000  0.000000  0.000000  -27.367558  19.442855  8.947368  39.847016  1.651742  -6.648476  -78.417781  -0.636629  110.055149  23.720636  123.063887
0.002080  0.000000  0.000000  0.000000  -27.367558  19.442855  12.105263  39.874084  -0.372521  -9.072522  -78.417781  -0.636629  110.055149  23.720636  123.063887
0.002124  0.000000  0.000000  0.000000  -27.367558  19.442855  15.263158  39.815478  -2.396118  -11.497682  -78.417781  -0.636629  110.055149  23.720636  123.063887
0.002168  0.000000  0.000000  0.000000  -27.367558  19.442855  18.421053  39.670932  -4.415415  -13.930009  -78.417781  -0.636629  110.055149  23.720636  123.063887
0.002212  0.000000  0.000000  0.000000  -27.367558  19.442855  21.578947  39.439821  -6.426745  -16.375596  -78.417781  -0.636629  110.055149  23.720636  123.063887
0.002257  0.000000  0.000000  0.000000  -27.367558  19.442855  24.736842  39.121112  -8.426368  -18.840541  -78.417781  -0.636629  110.055149  23.720636  123.063887
0.002301  0.000000  0.000000  0.000000  -27.367558  19.442855  27.894737  38.713447  -10.410471  -21.331006  -78.417781  -0.636629  110.055149  23.720636  123.063887
0.002345  0.000000  0.000000  0.000000  -27.367558  19.442855  31.052632  38.215074  -12.375088  -23.853211  -78.417781  -0.636629  110.055149  23.720636  123.063887
0.002389  0.000000  0.000000  0.000000  -27.367558  19.442855  34.210526  37.623937  -14.316121  -26.413426  -78.417781  -0.636629  110.055149  23.720636  123.063887
